Coordinates
version=1
nRows=30
nColumns=23
inDegrees=yes

Units are S.I. units (second, meters, Newtons, ...)
If the header above contains a line with 'inDegrees', this indicates whether rotational values are in degrees (yes) or radians (no).

endheader
time	pelvis_tilt	pelvis_list	pelvis_rotation	pelvis_tx	pelvis_ty	pelvis_tz	hip_flexion_r	hip_adduction_r	hip_rotation_r	knee_angle_r	knee_angle_r_beta	ankle_angle_r	subtalar_angle_r	mtp_angle_r	hip_flexion_l	hip_adduction_l	hip_rotation_l	knee_angle_l	knee_angle_l_beta	ankle_angle_l	subtalar_angle_l	mtp_angle_l
      7.50000000	     -3.11952454	      2.55781675	     -5.21033663	      2.11988460	      0.98308333	      1.03998634	    -21.68110635	     -1.23875418	     -8.45486896	     15.91582041	      0.27778347	     -8.34901162	      4.93677922	      0.00000000	     46.80158601	     -2.29028348	     -5.75891465	     79.99458659	      1.39616892	      3.95890749	    -16.80159816	      0.00000000
      7.50666667	     -3.96264574	      3.22761449	     -4.47385985	      2.12199968	      0.98545442	      1.03932558	    -22.33641381	     -1.85016989	    -10.53898845	     15.31666049	      0.26732616	    -12.18926568	      4.90362690	      0.00000000	     47.72608235	     -1.19656361	     -5.79486755	     75.51963017	      1.31806620	      3.79423068	    -16.41502770	      0.00000000
      7.51333333	     -4.77324630	      3.69825304	     -3.72808971	      2.12389409	      0.98773244	      1.03857441	    -22.75365956	     -2.30141160	    -12.68772910	     15.27144747	      0.26653704	    -15.61781840	      4.75473189	      0.00000000	     48.40394015	     -0.26339277	     -5.77183204	     70.80656513	      1.23580769	      3.33645040	    -16.39430455	      0.00000000
      7.52000000	     -5.66938801	      3.99134725	     -2.93954413	      2.12552804	      0.98965820	      1.03767369	    -22.77766753	     -2.62103142	    -14.81744864	     15.87887314	      0.27713862	    -18.42114397	      4.25783588	      0.00000000	     49.02133464	      0.47991174	     -5.81038446	     65.98252178	      1.15161225	      3.34232517	    -15.59500303	      0.00000000
      7.52666667	     -6.42781805	      4.16411525	     -2.14831177	      2.12694529	      0.99146509	      1.03662130	    -22.68534758	     -2.94134189	    -17.05109076	     17.09233091	      0.29831745	    -20.50823726	      4.00183247	      0.00000000	     49.27117632	      1.15760314	     -5.87812618	     60.91335836	      1.06313866	      3.04146408	    -15.22449424	      0.00000000
      7.53333333	     -7.13479821	      4.19528773	     -1.35913053	      2.12816725	      0.99298373	      1.03541127	    -22.47452547	     -3.09157095	    -18.64615517	     18.67591868	      0.32595627	    -22.02244128	      2.90399068	      0.00000000	     49.31844419	      1.65087481	     -6.15532080	     55.79168077	      0.97374852	      3.22549085	    -14.03446871	      0.00000000
      7.54000000	     -7.69085314	      4.20179420	     -0.59322723	      2.12922484	      0.99426408	      1.03403041	    -22.21436522	     -3.27989373	    -19.95570266	     20.73712857	      0.36193117	    -22.81568209	      1.72018065	      0.00000000	     49.01859209	      2.11482755	     -6.65760378	     50.54835486	      0.88223522	      3.41768009	    -12.64794330	      0.00000000
      7.54666667	     -8.06112774	      4.19737251	      0.04354862	      2.13007505	      0.99533027	      1.03261507	    -21.90023362	     -3.56422914	    -20.86608359	     23.32468067	      0.40709247	    -22.94382814	      0.72975139	      0.00000000	     48.35340453	      2.47617644	     -7.51616678	     45.24813530	      0.78972894	      3.66618074	    -10.92706541	      0.00000000
      7.55333333	     -8.28189415	      4.15446204	      0.69334626	      2.13078224	      0.99604537	      1.03100088	    -21.58947502	     -3.73446866	    -21.21375819	     26.18242533	      0.45696953	    -22.74858641	     -0.67725754	      0.00000000	     47.43423919	      2.86821227	     -8.53141672	     40.04781512	      0.69896623	      4.07517478	     -8.74317388	      0.00000000
      7.56000000	     -8.32724901	      4.09037145	      1.28881663	      2.13137449	      0.99638790	      1.02935891	    -21.28005912	     -3.86938356	    -21.19749938	     29.35845740	      0.51240174	    -22.21580780	     -2.14467949	      0.00000000	     46.30238462	      3.23855153	     -9.78891692	     35.15090697	      0.61349906	      4.84487239	     -5.72765105	      0.00000000
      7.56666667	     -8.23991242	      4.02277748	      1.84321779	      2.13170782	      0.99637508	      1.02762810	    -20.89325835	     -3.98514863	    -20.89663945	     32.86758462	      0.57364757	    -21.63537225	     -3.69337430	      0.00000000	     44.97861207	      3.73278590	    -10.91505927	     30.46018769	      0.53163057	      5.34472173	     -2.90129015	      0.00000000
      7.57333333	     -8.10298952	      3.95113012	      2.40733261	      2.13184951	      0.99584653	      1.02586886	    -20.37536359	     -4.05813658	    -20.45976662	     36.64974827	      0.63965878	    -21.06054855	     -5.34902353	      0.00000000	     43.58647400	      4.40949132	    -11.59300852	     26.05785330	      0.45479534	      5.49297643	     -0.52392130	      0.00000000
      7.58000000	     -7.77542726	      3.98136857	      2.89238594	      2.13184150	      0.99504459	      1.02435038	    -19.89658673	     -4.30831879	    -20.16701656	     40.70516547	      0.71043916	    -20.45449325	     -6.47932521	      0.00000000	     41.99349756	      5.16750321	    -12.12375086	     22.06713368	      0.38514414	      5.46608084	      1.65851502	      0.00000000
      7.58666667	     -7.42962344	      4.03823106	      3.39792700	      2.13165667	      0.99374876	      1.02297712	    -19.30544966	     -4.58254707	    -19.95536464	     44.93053287	      0.78418573	    -20.07914549	     -7.72285438	      0.00000000	     40.42199833	      5.99853888	    -12.24404592	     18.57329768	      0.32416520	      5.10714512	      3.39007498	      0.00000000
      7.59333333	     -6.96718243	      4.22799033	      3.93534070	      2.13134734	      0.99226081	      1.02182632	    -18.74122864	     -4.97540504	    -19.89226624	     49.26842700	      0.85989627	    -19.78108011	     -8.75969068	      0.00000000	     38.51367473	      7.12489679	    -11.21792627	     15.04812373	      0.26263931	      3.81160103	      3.27630326	      0.00000000
      7.60000000	     -6.39327752	      4.47947213	      4.42631417	      2.13100155	      0.99053763	      1.02102895	    -18.21004857	     -5.42980024	    -19.88700084	     53.64016829	      0.93619755	    -19.72053402	     -9.89285083	      0.00000000	     36.64432897	      8.04930851	    -10.60751241	     12.39649719	      0.21635969	      2.65001890	      3.49675433	      0.00000000
      7.60666667	     -5.81350665	      4.79321879	      4.89468102	      2.13053942	      0.98839789	      1.02046046	    -17.58400586	     -5.91105322	    -19.84374644	     58.05001425	      1.01316388	    -19.88743953	    -11.18515752	      0.00000000	     35.08842000	      8.74582814	    -10.81898692	     10.92991048	      0.19076292	      1.83612731	      4.31716854	      0.00000000
      7.61333333	     -5.17847577	      5.17117631	      5.41324507	      2.12996335	      0.98599185	      1.02001281	    -16.96135341	     -6.45733921	    -19.95123504	     62.45729165	      1.09008538	    -20.12874530	    -12.53137844	      0.00000000	     33.64335734	      9.38927447	    -11.16417697	     10.28594381	      0.17952359	      1.03270083	      4.59485213	      0.00000000
      7.62000000	     -4.49936506	      5.71263107	      5.89780614	      2.12937614	      0.98331746	      1.01972172	    -16.34312360	     -7.20060917	    -20.12270998	     66.84310523	      1.16663227	    -20.51244038	    -13.78584557	      0.00000000	     32.22732233	     10.03844187	    -11.79452462	     10.26060696	      0.17908137	     -0.07015597	      4.37740874	      0.00000000
      7.62666667	     -3.81878410	      6.32436159	      6.39969959	      2.12871361	      0.98030582	      1.01955778	    -15.67746247	     -8.00655487	    -20.32214054	     71.17961708	      1.24231868	    -20.90448636	    -15.10257778	      0.00000000	     30.95235172	     10.62721732	    -12.57691774	     10.96357327	      0.19135045	     -1.15368877	      3.74658935	      0.00000000
      7.63333333	     -3.17406186	      7.00311628	      6.91299879	      2.12796452	      0.97692593	      1.01949561	    -14.92307348	     -8.88539924	    -20.52592388	     75.45731158	      1.31697853	    -21.27173297	    -16.46464138	      0.00000000	     29.84462912	     11.15419650	    -13.47672060	     12.33406915	      0.21527012	     -2.19711062	      2.75992835	      0.00000000
      7.64000000	     -2.85183101	      7.57904894	      7.38516077	      2.12694474	      0.97285555	      1.01959890	    -13.64524606	     -9.71284926	    -20.56238097	     79.76963137	      1.39224271	    -21.55001385	    -17.78097019	      0.00000000	     29.28027200	     11.43819841	    -14.47743367	     14.40991698	      0.25150050	     -3.00559105	      1.51466544	      0.00000000
      7.64666667	     -2.29857180	      8.30360968	      7.92891520	      2.12593598	      0.96892021	      1.01964710	    -12.68811678	    -10.72678057	    -20.79208383	     83.86748827	      1.46376381	    -21.81381272	    -19.04689303	      0.00000000	     28.44495841	     11.84279125	    -15.20445906	     16.79036535	      0.29304716	     -3.73760547	     -0.07704593	      0.00000000
      7.65333333	     -2.35023560	      8.78934793	      8.42395334	      2.12450822	      0.96410343	      1.01990771	    -10.77728823	    -11.54818337	    -20.66258919	     88.04251822	      1.53663182	    -21.88652441	    -20.19912020	      0.00000000	     28.44219023	     12.01180133	    -15.55558212	     19.68647442	      0.34359380	     -4.10806850	     -2.19809803	      0.00000000
      7.66000000	     -2.37815321	      9.30133660	      8.99246351	      2.12287577	      0.95937568	      1.01999925	     -8.85779389	    -12.46963710	    -20.59448302	     92.04107430	      1.60641979	    -21.83580010	    -21.14481378	      0.00000000	     28.41637107	     12.29528054	    -15.48219473	     22.77745548	      0.39754159	     -4.09358249	     -4.53977202	      0.00000000
      7.66666667	     -2.57122639	      9.73865379	      9.58602735	      2.12095338	      0.95461439	      1.01999485	     -6.62062038	    -13.40505027	    -20.42823130	     95.90928375	      1.67393278	    -21.65562011	    -21.85344036	      0.00000000	     28.62555135	     12.61830705	    -15.01047541	     26.09371258	      0.45542120	     -3.56718094	     -7.04770085	      0.00000000
      7.67333333	     -2.91702677	     10.08116088	     10.18011297	      2.11869019	      0.94994613	      1.01987405	     -4.04122750	    -14.32835837	    -20.10280938	     99.62503851	      1.73878494	    -21.35332188	    -22.26164952	      0.00000000	     29.02214860	     12.95946835	    -14.26787503	     29.52143398	      0.51524622	     -2.46497548	     -9.45946618	      0.00000000
      7.68000000	     -3.34029270	     10.31832190	     10.75679713	      2.11618495	      0.94554439	      1.01965135	     -1.20118369	    -15.20135791	    -19.60761447	    103.12722424	      1.79990961	    -20.93433095	    -22.37060753	      0.00000000	     29.47412632	     13.26070553	    -13.42018134	     32.96609082	      0.57536683	     -0.78043948	    -11.43033875	      0.00000000
      7.68666667	     -3.84246943	     10.42891401	     11.24701623	      2.11343968	      0.94144380	      1.01945593	      1.96299986	    -15.98481484	    -18.86307854	    106.41077967	      1.85721846	    -20.39454224	    -22.18583061	      0.00000000	     29.93652179	     13.42233809	    -12.64222451	     36.31769133	      0.63386329	      1.38075586	    -12.72947039	      0.00000000
      7.69333333	     -4.24092174	     10.41433944	     11.50628372	      2.11062499	      0.93799480	      1.01957708	      5.29334701	    -16.53508554	    -17.74843413	    109.38027611	      1.90904595	    -19.84711516	    -21.70581884	      0.00000000	     30.18094791	     13.25998981	    -12.19190647	     39.53624484	      0.69003765	      4.67358115	    -12.56748895	      0.00000000
